<mxfile host="app.diagrams.net" modified="2024-05-15T17:05:02.805Z" agent="Mozilla/5.0 (Windows NT 10.0; Win64; x64) AppleWebKit/537.36 (KHTML, like Gecko) Chrome/124.0.0.0 Safari/537.36" etag="nOoEvFNB61vqF5PQf9ep" version="24.3.1" type="device">
  <diagram id="JUzksbQDSs-LjVpE02Q1" name="PÃ¡gina-1">
    <mxGraphModel dx="1120" dy="529" grid="1" gridSize="10" guides="1" tooltips="1" connect="1" arrows="1" fold="1" page="1" pageScale="1" pageWidth="827" pageHeight="1169" math="0" shadow="0">
      <root>
        <mxCell id="0" />
        <mxCell id="1" parent="0" />
        <mxCell id="3AQX-FyJNdkEs0jPdl4k-1" value="Diciplina" style="swimlane;childLayout=stackLayout;horizontal=1;startSize=50;horizontalStack=0;rounded=1;fontSize=14;fontStyle=0;strokeWidth=2;resizeParent=0;resizeLast=1;shadow=0;dashed=0;align=center;arcSize=4;whiteSpace=wrap;html=1;" vertex="1" parent="1">
          <mxGeometry x="260" y="50" width="130" height="150" as="geometry" />
        </mxCell>
        <mxCell id="3AQX-FyJNdkEs0jPdl4k-2" value="Codigo PK&lt;div&gt;nome&lt;/div&gt;&lt;div&gt;aulas&lt;/div&gt;&lt;div&gt;ementa&lt;/div&gt;&lt;div&gt;codigoprofessor FK&lt;/div&gt;&lt;div&gt;codigocurso FK&lt;/div&gt;" style="align=left;strokeColor=none;fillColor=none;spacingLeft=4;fontSize=12;verticalAlign=top;resizable=0;rotatable=0;part=1;html=1;" vertex="1" parent="3AQX-FyJNdkEs0jPdl4k-1">
          <mxGeometry y="50" width="130" height="100" as="geometry" />
        </mxCell>
        <mxCell id="3AQX-FyJNdkEs0jPdl4k-3" value="Professor" style="swimlane;childLayout=stackLayout;horizontal=1;startSize=50;horizontalStack=0;rounded=1;fontSize=14;fontStyle=0;strokeWidth=2;resizeParent=0;resizeLast=1;shadow=0;dashed=0;align=center;arcSize=4;whiteSpace=wrap;html=1;" vertex="1" parent="1">
          <mxGeometry x="20" y="50" width="120" height="190" as="geometry" />
        </mxCell>
        <mxCell id="3AQX-FyJNdkEs0jPdl4k-4" value="Codigo PK&lt;div&gt;nome&amp;nbsp;&lt;/div&gt;&lt;div&gt;endereco&lt;/div&gt;&lt;div&gt;cidade&lt;/div&gt;&lt;div&gt;estado&lt;/div&gt;&lt;div&gt;diciplina&lt;/div&gt;&lt;div&gt;RG&lt;/div&gt;&lt;div&gt;CPF&lt;/div&gt;&lt;div&gt;email&lt;/div&gt;" style="align=left;strokeColor=none;fillColor=none;spacingLeft=4;fontSize=12;verticalAlign=top;resizable=0;rotatable=0;part=1;html=1;" vertex="1" parent="3AQX-FyJNdkEs0jPdl4k-3">
          <mxGeometry y="50" width="120" height="140" as="geometry" />
        </mxCell>
        <mxCell id="3AQX-FyJNdkEs0jPdl4k-5" value="Curso" style="swimlane;childLayout=stackLayout;horizontal=1;startSize=50;horizontalStack=0;rounded=1;fontSize=14;fontStyle=0;strokeWidth=2;resizeParent=0;resizeLast=1;shadow=0;dashed=0;align=center;arcSize=4;whiteSpace=wrap;html=1;" vertex="1" parent="1">
          <mxGeometry x="480" y="50" width="160" height="120" as="geometry" />
        </mxCell>
        <mxCell id="3AQX-FyJNdkEs0jPdl4k-6" value="codigo PK&lt;div&gt;nome&amp;nbsp;&lt;/div&gt;&lt;div&gt;coordenador&lt;/div&gt;" style="align=left;strokeColor=none;fillColor=none;spacingLeft=4;fontSize=12;verticalAlign=top;resizable=0;rotatable=0;part=1;html=1;" vertex="1" parent="3AQX-FyJNdkEs0jPdl4k-5">
          <mxGeometry y="50" width="160" height="70" as="geometry" />
        </mxCell>
        <mxCell id="3AQX-FyJNdkEs0jPdl4k-9" value="" style="edgeStyle=entityRelationEdgeStyle;fontSize=12;html=1;endArrow=ERmany;startArrow=ERmany;rounded=0;entryX=-0.012;entryY=0.157;entryDx=0;entryDy=0;entryPerimeter=0;exitX=1.023;exitY=0.84;exitDx=0;exitDy=0;exitPerimeter=0;" edge="1" parent="1" source="3AQX-FyJNdkEs0jPdl4k-2" target="3AQX-FyJNdkEs0jPdl4k-6">
          <mxGeometry width="100" height="100" relative="1" as="geometry">
            <mxPoint x="360" y="330" as="sourcePoint" />
            <mxPoint x="460" y="230" as="targetPoint" />
            <Array as="points">
              <mxPoint x="420" y="270" />
            </Array>
          </mxGeometry>
        </mxCell>
        <mxCell id="3AQX-FyJNdkEs0jPdl4k-10" value="" style="edgeStyle=entityRelationEdgeStyle;fontSize=12;html=1;endArrow=ERmany;startArrow=ERmany;rounded=0;entryX=0;entryY=0.75;entryDx=0;entryDy=0;" edge="1" parent="1" target="3AQX-FyJNdkEs0jPdl4k-2">
          <mxGeometry width="100" height="100" relative="1" as="geometry">
            <mxPoint x="140" y="110" as="sourcePoint" />
            <mxPoint x="250" y="188" as="targetPoint" />
          </mxGeometry>
        </mxCell>
      </root>
    </mxGraphModel>
  </diagram>
</mxfile>
